<svg width="20" height="20" viewBox="0 0 20 20" fill="none" xmlns="http://www.w3.org/2000/svg">
<g clip-path="url(#clip0_1106_2093)">
<path d="M4.16699 13.3333V10.8333C4.16699 10.6123 4.25479 10.4004 4.41107 10.2441C4.56735 10.0878 4.77931 10 5.00033 10H15.0003C15.2213 10 15.4333 10.0878 15.5896 10.2441C15.7459 10.4004 15.8337 10.6123 15.8337 10.8333V13.3333" stroke="#FF3500" stroke-width="1.66667" stroke-linecap="round" stroke-linejoin="round"/>
<path d="M10 10.0003V6.66699" stroke="#FF3500" stroke-width="1.66667" stroke-linecap="round" stroke-linejoin="round"/>
<path d="M17.4997 13.334H14.1663C13.7061 13.334 13.333 13.7071 13.333 14.1673V17.5007C13.333 17.9609 13.7061 18.334 14.1663 18.334H17.4997C17.9599 18.334 18.333 17.9609 18.333 17.5007V14.1673C18.333 13.7071 17.9599 13.334 17.4997 13.334Z" stroke="#155DFC" stroke-width="1.66667" stroke-linecap="round" stroke-linejoin="round"/>
<path d="M5.83366 13.334H2.50033C2.04009 13.334 1.66699 13.7071 1.66699 14.1673V17.5007C1.66699 17.9609 2.04009 18.334 2.50033 18.334H5.83366C6.2939 18.334 6.66699 17.9609 6.66699 17.5007V14.1673C6.66699 13.7071 6.2939 13.334 5.83366 13.334Z" stroke="#155DFC" stroke-width="1.66667" stroke-linecap="round" stroke-linejoin="round"/>
<path d="M11.6667 1.66699H8.33333C7.8731 1.66699 7.5 2.04009 7.5 2.50033V5.83366C7.5 6.2939 7.8731 6.66699 8.33333 6.66699H11.6667C12.1269 6.66699 12.5 6.2939 12.5 5.83366V2.50033C12.5 2.04009 12.1269 1.66699 11.6667 1.66699Z" stroke="#155DFC" stroke-width="1.66667" stroke-linecap="round" stroke-linejoin="round"/>
</g>
<defs>
<clipPath id="clip0_1106_2093">
<rect width="20" height="20" fill="white"/>
</clipPath>
</defs>
</svg>
