<svg width="32" height="32" viewBox="0 0 32 32" fill="none" xmlns="http://www.w3.org/2000/svg">
<g clip-path="url(#clip0_478_783)">
<path d="M31.9996 26.6673C31.9996 29.6086 29.6076 32.0006 26.6662 32.0006H10.4716L13.1982 29.334H26.6676C28.1382 29.334 29.3342 28.138 29.3342 26.6673C29.3342 25.1966 28.1382 24.0006 26.6676 24.0006H20.0009C17.0596 24.0006 14.6676 21.6086 14.6676 18.6673C14.6676 16.098 16.4942 13.9486 18.9169 13.446L21.5289 16.0006H20.0009C18.5302 16.0006 17.3342 17.1966 17.3342 18.6673C17.3342 20.138 18.5302 21.334 20.0009 21.334H26.6676C29.6089 21.334 31.9996 23.726 31.9996 26.6673ZM30.0462 11.382C32.6462 8.78195 32.6462 4.55262 30.0462 1.95395C28.7876 0.695286 27.1129 0.00195312 25.3329 0.00195312C23.5529 0.00195312 21.8782 0.695286 20.6182 1.95395C18.0196 4.55395 18.0196 8.78329 20.6289 11.3926L25.3329 15.9926L30.0462 11.382ZM28.1609 3.83929C29.7209 5.39929 29.7209 7.93662 28.1716 9.48595L25.3329 12.262L22.5036 9.49662C20.9449 7.93662 20.9449 5.39929 22.5036 3.83929C23.2596 3.08329 24.2636 2.66729 25.3329 2.66729C26.4022 2.66729 27.4062 3.08462 28.1609 3.83929ZM11.3796 27.382C13.9796 24.782 13.9796 20.5526 11.3796 17.954C10.1209 16.6953 8.44624 16.002 6.66624 16.002C4.88624 16.002 3.21158 16.6953 1.95158 17.954C-0.647092 20.554 -0.647092 24.7833 1.96224 27.3926L6.66624 31.9926L11.3796 27.382ZM9.49424 19.8393C11.0542 21.3993 11.0542 23.9366 9.50491 25.486L6.66624 28.262L3.83691 25.4966C2.27824 23.9366 2.27824 21.3993 3.83691 19.8393C4.59291 19.0833 5.59691 18.6673 6.66624 18.6673C7.73558 18.6673 8.73958 19.0846 9.49424 19.8393Z" fill="black"/>
</g>
<defs>
<clipPath id="clip0_478_783">
<rect width="32" height="32" fill="white"/>
</clipPath>
</defs>
</svg>
