<svg width="24" height="27" viewBox="0 0 24 27" fill="none" xmlns="http://www.w3.org/2000/svg">
<g clip-path="url(#clip0_1123_8891)">
<path d="M-0.000511825 13.5034H4.3199C5.2881 13.5034 6.16906 12.9299 6.57474 12.0318L8.28003 8.26785C8.43682 7.92178 8.92174 7.93826 9.05428 8.29257L12.5505 17.5654C12.7655 18.1356 13.1874 18.6201 13.7498 18.8392C14.8166 19.2611 15.9513 18.7338 16.3942 17.7549L18.0995 13.991C18.2353 13.691 18.5295 13.5015 18.8527 13.5015H23.1264C23.5402 13.5015 23.9217 13.2148 23.9863 12.8011C24.0736 12.2738 23.6711 11.814 23.1716 11.814H18.8512C17.883 11.814 17.002 12.3875 16.5964 13.2856L14.8911 17.0496C14.7343 17.3956 14.2494 17.3791 14.1168 17.0248L10.6206 7.75202C10.4056 7.18182 9.98374 6.69734 9.42127 6.47817C8.35447 6.0563 7.21976 6.58364 6.77688 7.56252L5.0716 11.3264C4.93582 11.6264 4.64163 11.8159 4.31837 11.8159H0.0447161C-0.369077 11.8159 -0.750553 12.1026 -0.815188 12.5163C-0.902473 13.0436 -0.499993 13.5034 -0.000511825 13.5034Z" fill="#FF3500"/>
<path d="M22.4265 8.90449C22.8451 8.86164 23.1716 8.46118 23.1716 7.99315V6.37817C23.1716 4.51762 21.6862 3.00317 19.8613 3.00317H18.2772C17.8133 3.00317 17.4206 3.33606 17.3834 3.76289C17.3624 4.00678 17.4367 4.23914 17.5951 4.41713C17.7519 4.59511 17.9766 4.69563 18.2077 4.69563H19.8629C20.7778 4.69563 21.5181 5.45041 21.5181 6.38313V8.07063C21.5181 8.30629 21.6167 8.53537 21.7913 8.69522C21.9658 8.85507 22.1921 8.93088 22.433 8.9111L22.4265 8.90449Z" fill="#1E50C1"/>
<path d="M22.4265 17.4147C22.1872 17.3933 21.9593 17.4691 21.7847 17.6306C21.6102 17.7904 21.5116 18.0195 21.5116 18.2552V19.9427C21.5116 20.8754 20.7713 21.6302 19.8564 21.6302H18.2724C17.8085 21.6302 17.4157 21.963 17.3785 22.3899C17.3575 22.6338 17.4318 22.8661 17.5902 23.0441C17.747 23.2221 17.9717 23.3226 18.2029 23.3226H19.858C21.6829 23.3226 23.1684 21.8082 23.1684 19.9476V18.3326C23.1684 17.8597 22.8419 17.4592 22.4232 17.4213L22.4265 17.4147Z" fill="#1E50C1"/>
<path d="M0.909028 17.4146H0.826593C0.619697 17.4146 0.425731 17.4904 0.272193 17.6337C0.0976221 17.7936 -0.000976562 18.0227 -0.000976562 18.2583V19.9458C-0.000976562 21.8064 1.48446 23.3208 3.30937 23.3208H4.89341C5.35731 23.3208 5.75009 22.9879 5.78729 22.5611C5.8083 22.3172 5.73394 22.0849 5.57554 21.9069C5.41875 21.7289 5.19408 21.6284 4.96292 21.6284H3.30775C2.39289 21.6284 1.65257 20.8736 1.65257 19.9409V18.3259C1.65257 17.8529 1.32607 17.4525 0.907415 17.4146L0.909028 17.4146Z" fill="#1E50C1"/>
<path d="M3.30937 3.00331C1.48446 3.00331 -0.000976562 4.51775 -0.000976562 6.37831V8.06581C-0.000976562 8.30146 0.0976221 8.53054 0.272193 8.69039C0.446764 8.85025 0.677905 8.93099 0.913904 8.90628C1.33254 8.86343 1.65906 8.46297 1.65906 7.99494V6.37996C1.65906 5.44724 2.39938 4.69246 3.31423 4.69246H4.89828C5.36218 4.69246 5.75495 4.35958 5.79215 3.93275C5.81317 3.68885 5.73881 3.45649 5.58041 3.27851C5.42361 3.10052 5.19894 3 4.96778 3H3.31261L3.30937 3.00331Z" fill="#1E50C1"/>
</g>
<defs>
<clipPath id="clip0_1123_8891">
<rect width="24" height="27" fill="white"/>
</clipPath>
</defs>
</svg>
