<svg width="24" height="24" viewBox="0 0 24 24" fill="none" xmlns="http://www.w3.org/2000/svg">
<path d="M10.3934 13.6067L14.636 9.36401" stroke="#FF3500" stroke-width="2" stroke-linecap="round" stroke-linejoin="round"/>
<path d="M19.711 3.36361L2.24275 8.29055C2.0958 8.332 1.96499 8.41731 1.86782 8.53509C1.77065 8.65287 1.71175 8.79751 1.69898 8.94966C1.68621 9.10182 1.72018 9.25424 1.79636 9.38657C1.87254 9.5189 1.98729 9.62483 2.12529 9.69019L10.1513 13.492C10.3078 13.5661 10.4339 13.6922 10.508 13.8487L14.3098 21.8747C14.3752 22.0127 14.4811 22.1275 14.6135 22.2037C14.7458 22.2798 14.8982 22.3138 15.0504 22.301C15.2025 22.2883 15.3471 22.2294 15.4649 22.1322C15.5827 22.035 15.668 21.9042 15.7095 21.7573L20.6364 4.28904C20.6726 4.16073 20.6739 4.02509 20.6403 3.89609C20.6066 3.76709 20.5392 3.64939 20.4449 3.55512C20.3506 3.46085 20.2329 3.39341 20.1039 3.35975C19.9749 3.32609 19.8393 3.32742 19.711 3.36361Z" stroke="#1E50C1" stroke-width="2" stroke-linecap="round" stroke-linejoin="round"/>
</svg>
