<svg width="32" height="32" viewBox="0 0 32 32" fill="none" xmlns="http://www.w3.org/2000/svg">
<g clip-path="url(#clip0_478_795)">
<path d="M0.391 5.72433L2.115 4.00033L0.391 2.27633C-0.130333 1.755 -0.130333 0.912333 0.391 0.391C0.912333 -0.130333 1.755 -0.130333 2.27633 0.391L4.00033 2.115L5.72433 0.391C6.24567 -0.130333 7.08833 -0.130333 7.60966 0.391C8.131 0.912333 8.131 1.755 7.60966 2.27633L5.88567 4.00033L7.60966 5.72433C8.131 6.24567 8.131 7.08833 7.60966 7.60966C7.34967 7.86967 7.00833 8.00033 6.667 8.00033C6.32567 8.00033 5.98433 7.86967 5.72433 7.60966L4.00033 5.88567L2.27633 7.60966C2.01633 7.86967 1.675 8.00033 1.33367 8.00033C0.992333 8.00033 0.651 7.86967 0.391 7.60966C-0.130333 7.08833 -0.130333 6.24567 0.391 5.72433ZM12.391 14.2763C12.651 14.5363 12.9923 14.667 13.3337 14.667C13.675 14.667 14.0163 14.5363 14.2763 14.2763L16.0003 12.5523L17.7243 14.2763C17.9843 14.5363 18.3257 14.667 18.667 14.667C19.0083 14.667 19.3497 14.5363 19.6097 14.2763C20.131 13.755 20.131 12.9123 19.6097 12.391L17.8857 10.667L19.6097 8.943C20.131 8.42167 20.131 7.579 19.6097 7.05767C19.0883 6.53633 18.2457 6.53633 17.7243 7.05767L16.0003 8.78166L14.2763 7.05767C13.755 6.53633 12.9123 6.53633 12.391 7.05767C11.8697 7.579 11.8697 8.42167 12.391 8.943L14.115 10.667L12.391 12.391C11.8697 12.9123 11.8697 13.755 12.391 14.2763ZM27.6097 24.391C27.0883 23.8697 26.2457 23.8697 25.7243 24.391L24.0003 26.115L22.2763 24.391C21.755 23.8697 20.9123 23.8697 20.391 24.391C19.8697 24.9123 19.8697 25.755 20.391 26.2763L22.115 28.0003L20.391 29.7243C19.8697 30.2457 19.8697 31.0883 20.391 31.6097C20.651 31.8697 20.9923 32.0003 21.3337 32.0003C21.675 32.0003 22.0163 31.8697 22.2763 31.6097L24.0003 29.8857L25.7243 31.6097C25.9843 31.8697 26.3257 32.0003 26.667 32.0003C27.0083 32.0003 27.3497 31.8697 27.6097 31.6097C28.131 31.0883 28.131 30.2457 27.6097 29.7243L25.8857 28.0003L27.6097 26.2763C28.131 25.755 28.131 24.9123 27.6097 24.391ZM31.6283 5.591C31.367 5.863 31.0177 6.00033 30.667 6.00033C30.335 6.00033 30.0017 5.87633 29.7443 5.62833L28.0003 3.95367V14.667C28.0003 17.6083 25.6083 20.0003 22.667 20.0003H8.67233C7.207 20.0003 6.01233 21.1923 6.00567 22.6563V22.8857C7.923 23.4657 9.33366 25.2283 9.33366 27.3337C9.33366 29.907 7.24033 32.0003 4.667 32.0003C2.09367 32.0003 0.000333319 29.907 0.000333319 27.3337C0.000333319 25.2257 1.415 23.4603 3.33767 22.883V22.6457C3.34967 19.7163 5.743 17.3337 8.67233 17.3337H22.667C24.1377 17.3337 25.3337 16.1377 25.3337 14.667V3.963L23.5897 5.62833C23.0603 6.139 22.215 6.12167 21.7057 5.591C21.195 5.06033 21.2123 4.21633 21.743 3.70567L24.811 0.759C25.8257 -0.255667 27.5057 -0.254333 28.5417 0.777667L31.5897 3.707C32.1203 4.21767 32.1377 5.06167 31.627 5.59233L31.6283 5.591ZM4.667 25.3337C3.56433 25.3337 2.667 26.231 2.667 27.3337C2.667 28.4363 3.56433 29.3337 4.667 29.3337C5.76967 29.3337 6.667 28.4363 6.667 27.3337C6.667 26.231 5.76967 25.3337 4.667 25.3337Z" fill="black"/>
</g>
<defs>
<clipPath id="clip0_478_795">
<rect width="32" height="32" fill="white"/>
</clipPath>
</defs>
</svg>
