<svg width="28" height="28" viewBox="0 0 28 28" fill="none" xmlns="http://www.w3.org/2000/svg">
<path d="M10.5 3.5H4.66667C4.02233 3.5 3.5 4.02233 3.5 4.66667V12.8333C3.5 13.4777 4.02233 14 4.66667 14H10.5C11.1443 14 11.6667 13.4777 11.6667 12.8333V4.66667C11.6667 4.02233 11.1443 3.5 10.5 3.5Z" stroke="#1E50C1" stroke-width="2.33333" stroke-linecap="round" stroke-linejoin="round"/>
<path d="M23.333 3.5H17.4997C16.8553 3.5 16.333 4.02233 16.333 4.66667V8.16667C16.333 8.811 16.8553 9.33333 17.4997 9.33333H23.333C23.9773 9.33333 24.4997 8.811 24.4997 8.16667V4.66667C24.4997 4.02233 23.9773 3.5 23.333 3.5Z" stroke="#FF3500" stroke-width="2.33333" stroke-linecap="round" stroke-linejoin="round"/>
<path d="M23.333 14H17.4997C16.8553 14 16.333 14.5223 16.333 15.1667V23.3333C16.333 23.9777 16.8553 24.5 17.4997 24.5H23.333C23.9773 24.5 24.4997 23.9777 24.4997 23.3333V15.1667C24.4997 14.5223 23.9773 14 23.333 14Z" stroke="#1E50C1" stroke-width="2.33333" stroke-linecap="round" stroke-linejoin="round"/>
<path d="M10.5 18.6665H4.66667C4.02233 18.6665 3.5 19.1888 3.5 19.8332V23.3332C3.5 23.9775 4.02233 24.4998 4.66667 24.4998H10.5C11.1443 24.4998 11.6667 23.9775 11.6667 23.3332V19.8332C11.6667 19.1888 11.1443 18.6665 10.5 18.6665Z" stroke="#FF3500" stroke-width="2.33333" stroke-linecap="round" stroke-linejoin="round"/>
</svg>
