<svg width="28" height="28" viewBox="0 0 28 28" fill="none" xmlns="http://www.w3.org/2000/svg">
<path d="M13.9996 5.83355C14.001 5.36692 13.9091 4.90473 13.7292 4.47415C13.5493 4.04358 13.2852 3.65332 12.9523 3.32632C12.6194 2.99933 12.2245 2.74221 11.7907 2.57007C11.357 2.39794 10.8932 2.31428 10.4267 2.324C9.96019 2.33373 9.50031 2.43664 9.07413 2.6267C8.64796 2.81675 8.26409 3.09011 7.94511 3.43069C7.62612 3.77127 7.37847 4.1722 7.2167 4.6099C7.05493 5.04759 6.98232 5.51322 7.00314 5.97939C6.31737 6.15571 5.68072 6.48578 5.14141 6.94459C4.60209 7.40339 4.17425 7.97891 3.89029 8.62754C3.60633 9.27618 3.47369 9.98093 3.50243 10.6884C3.53116 11.3959 3.72051 12.0876 4.05614 12.7111C3.46602 13.1905 3.00197 13.8068 2.70437 14.5065C2.40677 15.2061 2.28462 15.9679 2.34856 16.7255C2.4125 17.4832 2.66059 18.2137 3.07125 18.8536C3.4819 19.4935 4.04268 20.0233 4.70481 20.3971C4.62304 21.0297 4.67184 21.6723 4.84817 22.2853C5.02451 22.8983 5.32465 23.4687 5.73005 23.9612C6.13546 24.4536 6.63752 24.8578 7.20523 25.1486C7.77294 25.4394 8.39425 25.6108 9.03078 25.6521C9.66731 25.6934 10.3056 25.6038 10.9061 25.3888C11.5066 25.1737 12.0567 24.8379 12.5224 24.4019C12.988 23.966 13.3593 23.4392 13.6134 22.8541C13.8675 22.2691 13.999 21.6381 13.9996 21.0002V5.83355Z" stroke="#1E50C1" stroke-width="2.33333" stroke-linecap="round" stroke-linejoin="round"/>
<path d="M14 5.83355C13.9986 5.36692 14.0906 4.90473 14.2705 4.47415C14.4503 4.04358 14.7145 3.65332 15.0474 3.32632C15.3803 2.99933 15.7752 2.74221 16.2089 2.57007C16.6426 2.39794 17.1064 2.31428 17.5729 2.324C18.0395 2.33373 18.4993 2.43664 18.9255 2.6267C19.3517 2.81675 19.7356 3.09011 20.0545 3.43069C20.3735 3.77127 20.6212 4.1722 20.783 4.6099C20.9447 5.04759 21.0173 5.51322 20.9965 5.97939C21.6823 6.15571 22.3189 6.48578 22.8582 6.94459C23.3976 7.40339 23.8254 7.97891 24.1094 8.62754C24.3933 9.27618 24.526 9.98093 24.4972 10.6884C24.4685 11.3959 24.2791 12.0876 23.9435 12.7111C24.5336 13.1905 24.9977 13.8068 25.2953 14.5065C25.5929 15.2061 25.715 15.9679 25.6511 16.7255C25.5872 17.4832 25.3391 18.2137 24.9284 18.8536C24.5178 19.4935 23.957 20.0233 23.2948 20.3971C23.3766 21.0297 23.3278 21.6723 23.1515 22.2853C22.9751 22.8983 22.675 23.4687 22.2696 23.9612C21.8642 24.4536 21.3621 24.8578 20.7944 25.1486C20.2267 25.4394 19.6054 25.6108 18.9689 25.6521C18.3323 25.6934 17.6941 25.6038 17.0936 25.3888C16.493 25.1737 15.9429 24.8379 15.4773 24.4019C15.0116 23.966 14.6403 23.4392 14.3862 22.8541C14.1321 22.2691 14.0007 21.6381 14 21.0002V5.83355Z" stroke="#FF3500" stroke-width="2.33333" stroke-linecap="round" stroke-linejoin="round"/>
<path d="M17.5 15.1667C16.5205 14.8221 15.6652 14.1948 15.0422 13.3642C14.4192 12.5335 14.0565 11.5368 14 10.5C13.9435 11.5368 13.5808 12.5335 12.9578 13.3642C12.3348 14.1948 11.4795 14.8221 10.5 15.1667" stroke="#FF3500" stroke-width="2.33333" stroke-linecap="round" stroke-linejoin="round"/>
<path d="M20.5322 7.58317C20.8145 7.09385 20.9742 6.54346 20.9977 5.979" stroke="#FF3500" stroke-width="2.33333" stroke-linecap="round" stroke-linejoin="round"/>
<path d="M7.00391 5.979C7.02698 6.54336 7.18629 7.09375 7.46824 7.58317" stroke="#1E50C1" stroke-width="2.33333" stroke-linecap="round" stroke-linejoin="round"/>
<path d="M4.05649 12.712C4.26992 12.5382 4.49831 12.3836 4.73899 12.25" stroke="#1E50C1" stroke-width="2.33333" stroke-linecap="round" stroke-linejoin="round"/>
<path d="M23.2607 12.25C23.5014 12.3836 23.7298 12.5382 23.9432 12.712" stroke="#FF3500" stroke-width="2.33333" stroke-linecap="round" stroke-linejoin="round"/>
<path d="M7 21C6.19597 21.0003 5.40548 20.793 4.70517 20.3979" stroke="#1E50C1" stroke-width="2.33333" stroke-linecap="round" stroke-linejoin="round"/>
<path d="M23.2948 20.3979C22.5945 20.793 21.804 21.0003 21 20.9999" stroke="#FF3500" stroke-width="2.33333" stroke-linecap="round" stroke-linejoin="round"/>
</svg>
