<svg width="28" height="28" viewBox="0 0 28 28" fill="none" xmlns="http://www.w3.org/2000/svg">
<path d="M17.4997 2.3335H10.4997C9.85534 2.3335 9.33301 2.85583 9.33301 3.50016V5.8335C9.33301 6.47783 9.85534 7.00016 10.4997 7.00016H17.4997C18.144 7.00016 18.6663 6.47783 18.6663 5.8335V3.50016C18.6663 2.85583 18.144 2.3335 17.4997 2.3335Z" stroke="#1E50C1" stroke-width="2.33333" stroke-linecap="round" stroke-linejoin="round"/>
<path d="M18.667 4.6665H21.0003C21.6192 4.6665 22.2127 4.91234 22.6502 5.34992C23.0878 5.78751 23.3337 6.381 23.3337 6.99984V23.3332C23.3337 23.952 23.0878 24.5455 22.6502 24.9831C22.2127 25.4207 21.6192 25.6665 21.0003 25.6665H7.00033C6.38149 25.6665 5.78799 25.4207 5.35041 24.9831C4.91282 24.5455 4.66699 23.952 4.66699 23.3332V6.99984C4.66699 6.381 4.91282 5.78751 5.35041 5.34992C5.78799 4.91234 6.38149 4.6665 7.00033 4.6665H9.33366" stroke="#1E50C1" stroke-width="2.33333" stroke-linecap="round" stroke-linejoin="round"/>
<path d="M14 12.8335H18.6667" stroke="#FF3500" stroke-width="2.33333" stroke-linecap="round" stroke-linejoin="round"/>
<path d="M14 18.6665H18.6667" stroke="#FF3500" stroke-width="2.33333" stroke-linecap="round" stroke-linejoin="round"/>
<path d="M9.33301 12.8335H9.34467" stroke="#FF3500" stroke-width="2.33333" stroke-linecap="round" stroke-linejoin="round"/>
<path d="M9.33301 18.6665H9.34467" stroke="#FF3500" stroke-width="2.33333" stroke-linecap="round" stroke-linejoin="round"/>
</svg>
