<svg width="32" height="32" viewBox="0 0 32 32" fill="none" xmlns="http://www.w3.org/2000/svg">
<g clip-path="url(#clip0_478_791)">
<path d="M27.3333 21.3327H22.6667V16.666C22.6667 14.0927 20.5733 11.9994 18 11.9994H14C11.4267 11.9994 9.33333 14.0927 9.33333 16.666V17.3327H4.66667C2.09333 17.3327 0 19.426 0 21.9994V27.3327C0 29.906 2.09333 31.9994 4.66667 31.9994H27.3333C29.9067 31.9994 32 29.906 32 27.3327V25.9994C32 23.426 29.9067 21.3327 27.3333 21.3327ZM12 16.666C12 15.5634 12.8973 14.666 14 14.666H18C19.1027 14.666 20 15.5634 20 16.666V29.3327H12V16.666ZM2.66667 27.3327V21.9994C2.66667 20.8967 3.564 19.9994 4.66667 19.9994H9.33333V29.3327H4.66667C3.564 29.3327 2.66667 28.4354 2.66667 27.3327ZM29.3333 27.3327C29.3333 28.4354 28.436 29.3327 27.3333 29.3327H22.6667V23.9994H27.3333C28.436 23.9994 29.3333 24.8967 29.3333 25.9994V27.3327ZM10.7213 3.80871C10.8493 3.45938 11.1827 3.22605 11.556 3.22605H14.224L15.168 0.576714C15.2973 0.228713 15.6293 -0.00195312 16.0013 -0.00195312C16.3733 -0.00195312 16.7053 0.228713 16.8347 0.576714L17.7787 3.22605H20.4467C20.82 3.22605 21.1533 3.45938 21.2813 3.81005C21.4093 4.16071 21.304 4.55405 21.0187 4.79538L18.916 6.50871L19.7853 9.15805C19.904 9.51671 19.784 9.91138 19.484 10.142C19.184 10.3727 18.772 10.3887 18.456 10.1834L16.008 8.58871L13.6013 10.1994C13.452 10.2994 13.2787 10.35 13.1067 10.35C12.9187 10.35 12.7307 10.29 12.5733 10.1727C12.2707 9.94605 12.1453 9.55405 12.2587 9.19405L13.0947 6.51271L10.9813 4.79271C10.6973 4.55138 10.592 4.15805 10.7213 3.80871Z" fill="black"/>
</g>
<defs>
<clipPath id="clip0_478_791">
<rect width="32" height="32" fill="white"/>
</clipPath>
</defs>
</svg>
