<svg width="32" height="32" viewBox="0 0 32 32" fill="none" xmlns="http://www.w3.org/2000/svg">
<g clip-path="url(#clip0_478_787)">
<path d="M16 32C7.17733 32 0 24.8227 0 16C0 7.17733 7.17733 0 16 0C24.8227 0 32 7.17733 32 16C32 24.8227 24.8227 32 16 32ZM16 2.66667C8.648 2.66667 2.66667 8.648 2.66667 16C2.66667 23.352 8.648 29.3333 16 29.3333C23.352 29.3333 29.3333 23.352 29.3333 16C29.3333 8.648 23.352 2.66667 16 2.66667ZM16 26.6667C10.1187 26.6667 5.33333 21.8813 5.33333 16C5.33333 10.1187 10.1187 5.33333 16 5.33333C21.8813 5.33333 26.6667 10.1187 26.6667 16C26.6667 21.8813 21.8813 26.6667 16 26.6667ZM16 8C11.588 8 8 11.588 8 16C8 20.412 11.588 24 16 24C20.412 24 24 20.412 24 16C24 11.588 20.412 8 16 8ZM16 21.3333C13.0587 21.3333 10.6667 18.9413 10.6667 16C10.6667 13.0587 13.0587 10.6667 16 10.6667C18.9413 10.6667 21.3333 13.0587 21.3333 16C21.3333 18.9413 18.9413 21.3333 16 21.3333ZM16 13.3333C14.5293 13.3333 13.3333 14.5293 13.3333 16C13.3333 17.4707 14.5293 18.6667 16 18.6667C17.4707 18.6667 18.6667 17.4707 18.6667 16C18.6667 14.5293 17.4707 13.3333 16 13.3333Z" fill="black"/>
</g>
<defs>
<clipPath id="clip0_478_787">
<rect width="32" height="32" fill="white"/>
</clipPath>
</defs>
</svg>
